<svg xmlns="http://www.w3.org/2000/svg" viewBox="0 0 600 300" role="img" aria-label="Sparse radar point cloud enhanced to LiDAR-like density by a diffusion prior">
  <defs><marker id="b" markerWidth="9" markerHeight="9" refX="7" refY="4.5" orient="auto"><path d="M0,0 L9,4.5 L0,9 z" fill="#64748b"/></marker></defs>
  <rect width="600" height="300" rx="10" fill="#f8fafc"/>
  <rect x="24" y="52" width="160" height="170" rx="6" fill="#fff" stroke="#cbd5e1"/>
  <g fill="#f59e0b">
    <circle cx="66" cy="98" r="4"/><circle cx="118" cy="86" r="4"/><circle cx="92" cy="132" r="4"/>
    <circle cx="146" cy="126" r="4"/><circle cx="58" cy="166" r="4"/><circle cx="108" cy="178" r="4"/>
    <circle cx="152" cy="188" r="4"/>
  </g>
  <text x="104" y="243" font-size="17" text-anchor="middle" fill="#475569" font-family="system-ui,sans-serif">Sparse radar</text>
  <path d="M192,137 L232,137" stroke="#64748b" stroke-width="2" fill="none" marker-end="url(#b)"/>
  <rect x="238" y="98" width="124" height="78" rx="8" fill="#7c3aed" opacity=".12"/>
  <rect x="238" y="98" width="124" height="78" rx="8" fill="none" stroke="#7c3aed" stroke-width="1.6"/>
  <text x="300" y="128" font-size="18" text-anchor="middle" fill="#5b21b6" font-family="system-ui,sans-serif" font-weight="600">Diffusion</text>
  <text x="300" y="151" font-size="18" text-anchor="middle" fill="#5b21b6" font-family="system-ui,sans-serif" font-weight="600">prior</text>
  <text x="300" y="192" font-size="14" text-anchor="middle" fill="#7c3aed" font-family="system-ui,sans-serif">unpaired LiDAR guidance</text>
  <path d="M368,137 L408,137" stroke="#64748b" stroke-width="2" fill="none" marker-end="url(#b)"/>
  <rect x="416" y="52" width="160" height="170" rx="6" fill="#fff" stroke="#cbd5e1"/>
  <g fill="#0d9488">
    <circle cx="446" cy="86" r="2.5"/><circle cx="464" cy="94" r="2.5"/><circle cx="482" cy="84" r="2.5"/><circle cx="500" cy="92" r="2.5"/>
    <circle cx="518" cy="82" r="2.5"/><circle cx="536" cy="90" r="2.5"/><circle cx="554" cy="86" r="2.5"/>
    <circle cx="440" cy="112" r="2.5"/><circle cx="458" cy="120" r="2.5"/><circle cx="476" cy="110" r="2.5"/><circle cx="494" cy="118" r="2.5"/>
    <circle cx="512" cy="108" r="2.5"/><circle cx="530" cy="116" r="2.5"/><circle cx="548" cy="112" r="2.5"/><circle cx="566" cy="120" r="2.5"/>
    <circle cx="448" cy="140" r="2.5"/><circle cx="466" cy="148" r="2.5"/><circle cx="484" cy="138" r="2.5"/><circle cx="502" cy="146" r="2.5"/>
    <circle cx="520" cy="136" r="2.5"/><circle cx="538" cy="144" r="2.5"/><circle cx="556" cy="140" r="2.5"/>
    <circle cx="442" cy="168" r="2.5"/><circle cx="460" cy="176" r="2.5"/><circle cx="478" cy="166" r="2.5"/><circle cx="496" cy="174" r="2.5"/>
    <circle cx="514" cy="164" r="2.5"/><circle cx="532" cy="172" r="2.5"/><circle cx="550" cy="168" r="2.5"/><circle cx="568" cy="176" r="2.5"/>
    <circle cx="452" cy="196" r="2.5"/><circle cx="470" cy="204" r="2.5"/><circle cx="488" cy="194" r="2.5"/><circle cx="506" cy="202" r="2.5"/>
    <circle cx="524" cy="192" r="2.5"/><circle cx="542" cy="200" r="2.5"/><circle cx="560" cy="196" r="2.5"/>
  </g>
  <text x="496" y="243" font-size="17" text-anchor="middle" fill="#475569" font-family="system-ui,sans-serif">LiDAR-like density</text>
</svg>
