<svg xmlns="http://www.w3.org/2000/svg" viewBox="0 0 600 300" role="img" aria-label="Fusion reconstruction of 3D temperature fields on the human body surface">
  <defs>
    <marker id="d" markerWidth="9" markerHeight="9" refX="7" refY="4.5" orient="auto"><path d="M0,0 L9,4.5 L0,9 z" fill="#64748b"/></marker>
    <linearGradient id="heat" x1="0" y1="1" x2="0" y2="0">
      <stop offset="0%" stop-color="#1d4ed8"/><stop offset="45%" stop-color="#0d9488"/>
      <stop offset="75%" stop-color="#f59e0b"/><stop offset="100%" stop-color="#ef4444"/>
    </linearGradient>
  </defs>
  <rect width="600" height="300" rx="10" fill="#f8fafc"/>
  <rect x="34" y="42" width="150" height="216" rx="6" fill="#fff" stroke="#cbd5e1"/>
  <circle cx="109" cy="92" r="24" fill="url(#heat)"/>
  <path d="M79,128 h60 a10,10 0 0 1 10,10 v62 a8,8 0 0 1 -8,8 h-64 a8,8 0 0 1 -8,-8 v-62 a10,10 0 0 1 10,-10 z" fill="url(#heat)"/>
  <rect x="88" y="210" width="18" height="34" rx="5" fill="url(#heat)"/>
  <rect x="113" y="210" width="18" height="34" rx="5" fill="url(#heat)"/>
  <text x="109" y="278" font-size="16" text-anchor="middle" fill="#475569" font-family="system-ui,sans-serif">Thermal imaging</text>
  <path d="M196,150 L240,150" stroke="#64748b" stroke-width="2" fill="none" marker-end="url(#d)"/>
  <rect x="248" y="112" width="112" height="72" rx="8" fill="#2563eb" opacity=".12"/>
  <rect x="248" y="112" width="112" height="72" rx="8" fill="none" stroke="#2563eb" stroke-width="1.6"/>
  <text x="304" y="142" font-size="17" text-anchor="middle" fill="#1e40af" font-family="system-ui,sans-serif" font-weight="600">Fusion</text>
  <text x="304" y="165" font-size="17" text-anchor="middle" fill="#1e40af" font-family="system-ui,sans-serif" font-weight="600">reconstruction</text>
  <path d="M368,150 L412,150" stroke="#64748b" stroke-width="2" fill="none" marker-end="url(#d)"/>
  <rect x="420" y="42" width="150" height="216" rx="6" fill="#fff" stroke="#cbd5e1"/>
  <g opacity=".9">
    <circle cx="486" cy="92" r="24" fill="url(#heat)"/>
    <path d="M456,128 h60 a10,10 0 0 1 10,10 v62 a8,8 0 0 1 -8,8 h-64 a8,8 0 0 1 -8,-8 v-62 a10,10 0 0 1 10,-10 z" fill="url(#heat)"/>
    <rect x="465" y="210" width="18" height="34" rx="5" fill="url(#heat)"/>
    <rect x="490" y="210" width="18" height="34" rx="5" fill="url(#heat)"/>
  </g>
  <g stroke="#0f172a" stroke-width=".7" opacity=".35" fill="none">
    <path d="M456,146 H526"/><path d="M456,166 H526"/><path d="M456,186 H526"/>
    <path d="M478,128 V208"/><path d="M500,128 V208"/>
    <ellipse cx="486" cy="92" rx="24" ry="9"/><ellipse cx="486" cy="92" rx="10" ry="24"/>
  </g>
  <text x="495" y="278" font-size="16" text-anchor="middle" fill="#475569" font-family="system-ui,sans-serif">3D temperature field</text>
</svg>
